<svg width="824" height="1024" viewBox="0 0 824 1024" fill="none" xmlns="http://www.w3.org/2000/svg">
<g clip-path="url(#clip0_281_812)">
<rect width="824" height="1024" fill="url(#paint0_linear_281_812)"/>
<path d="M412 0H411V1V256H-100H-101V257V385V385.5L-100.6 385.8L409 768H-100H-101V769V897V897.618L-100.447 897.894L155.553 1025.89L155.764 1026H156H412H413V1025V770H924H925V769V641V640.5L924.6 640.2L415 258H924H925V257V129V128.382L924.447 128.106L668.447 0.105573L668.236 0H668H412Z" stroke="#4BB793" stroke-opacity="0.12" stroke-width="2"/>
<path d="M412 384.475H475.763L539.525 416.356V448.237H412V384.475Z" fill="#082326"/>
<path d="M539.525 575.763H412L284.475 480.119V448.237H412L539.525 543.881V575.763Z" fill="#082326"/>
<path d="M412 639.525H348.237L284.475 607.644V575.763H412V639.525Z" fill="#082326"/>
<path d="M412 383.837H411.362V384.475V447.6H284.475H283.837V448.237V480.119V480.438L284.092 480.629L410.087 575.125H284.475H283.837V575.763V607.644V608.038L284.19 608.214L347.952 640.096L348.087 640.163H348.237H412H412.638V639.525V576.4H539.525H540.163V575.763V543.881V543.563L539.908 543.371L413.913 448.875H539.525H540.163V448.237V416.356V415.962L539.81 415.786L476.048 383.904L475.913 383.837H475.763H412Z" stroke="#4BB793" stroke-opacity="0.12" stroke-width="1.27525"/>
<path d="M412 358.97H488.515L565.03 397.227V435.485H412V358.97Z" fill="#082326"/>
<path d="M565.03 588.515H412L258.97 473.742V435.485H412L565.03 550.258V588.515Z" fill="#082326"/>
<path d="M412 665.03H335.485L258.97 626.773V588.515H412V665.03Z" fill="#082326"/>
<path d="M412 358.205H411.235V358.97V434.72H258.97H258.204V435.485V473.742V474.125L258.511 474.355L409.704 587.75H258.97H258.204V588.515V626.773V627.246L258.627 627.457L335.143 665.715L335.304 665.795H335.485H412H412.765V665.03V589.28H565.03H565.795V588.515V550.258V549.875L565.489 549.645L414.295 436.25H565.03H565.795V435.485V397.227V396.754L565.372 396.543L488.857 358.285L488.696 358.205H488.515H412Z" stroke="#4BB793" stroke-opacity="0.12" stroke-width="1.5303"/>
<path d="M412 329.384H503.308L594.616 375.038V420.692H412V329.384Z" fill="#082326"/>
<path d="M594.616 603.308H412L229.384 466.346V420.692H412L594.616 557.654V603.308Z" fill="#082326"/>
<path d="M412 694.616H320.692L229.384 648.962V603.308H412V694.616Z" fill="#082326"/>
<path d="M412 328.471H411.087V329.384V419.779H229.384H228.471V420.692V466.346V466.803L228.836 467.076L409.261 602.395H229.384H228.471V603.308V648.962V649.526L228.975 649.779L320.284 695.433L320.476 695.529H320.692H412H412.913V694.616V604.221H594.616H595.529V603.308V557.654V557.198L595.164 556.924L414.739 421.605H594.616H595.529V420.692V375.038V374.474L595.024 374.221L503.716 328.567L503.524 328.471H503.308H412Z" stroke="#4BB793" stroke-opacity="0.12" stroke-width="1.82616"/>
<path d="M412 293.677H521.162L630.323 348.258V402.838H412V293.677Z" fill="#082326"/>
<path d="M630.323 621.162H412L193.677 457.419V402.838H412L630.323 566.581V621.162Z" fill="#082326"/>
<path d="M412 730.323H302.838L193.677 675.742V621.162H412V730.323Z" fill="#082326"/>
<path d="M412 292.585H410.908V293.677V401.747H193.677H192.585V402.838V457.419V457.965L193.022 458.292L408.725 620.07H193.677H192.585V621.162V675.742V676.417L193.189 676.719L302.35 731.3L302.581 731.415H302.838H412H413.092V730.323V622.253H630.323H631.415V621.162V566.581V566.035L630.978 565.708L415.275 403.93H630.323H631.415V402.838V348.258V347.583L630.811 347.281L521.65 292.7L521.419 292.585H521.162H412Z" stroke="#4BB793" stroke-opacity="0.12" stroke-width="2.18323"/>
<path d="M412 256.95H539.525L667.051 320.712V384.475H412V256.95Z" fill="#082326"/>
<path d="M667.051 639.525H412L156.95 448.237V384.475H412L667.051 575.763V639.525Z" fill="#082326"/>
<path d="M412 767.051H284.475L156.95 703.288V639.525H412V767.051Z" fill="#082326"/>
<path d="M412 255.95H411V256.95V383.475H156.95H155.95V384.475V448.237V448.737L156.35 449.037L409 638.525H156.95H155.95V639.525V703.288V703.906L156.502 704.182L284.028 767.945L284.239 768.051H284.475H412H413V767.051V640.525H667.051H668.051V639.525V575.763V575.263L667.651 574.963L415 385.475H667.051H668.051V384.475V320.712V320.094L667.498 319.818L539.973 256.055L539.761 255.95H539.525H412Z" stroke="#4BB793" stroke-opacity="0.12" stroke-width="2"/>
<g filter="url(#filter0_d_281_812)">
<path d="M412 409.98H463.01L514.02 435.485V460.99H412V409.98Z" fill="url(#paint1_linear_281_812)"/>
<path d="M514.02 563.01H412L309.98 486.495V460.99H412L514.02 537.505V563.01Z" fill="url(#paint2_linear_281_812)"/>
<path d="M412 614.02H360.99L309.98 588.515V563.01H412V614.02Z" fill="url(#paint3_linear_281_812)"/>
</g>
</g>
<defs>
<filter id="filter0_d_281_812" x="187.555" y="287.556" width="448.889" height="448.889" filterUnits="userSpaceOnUse" color-interpolation-filters="sRGB">
<feFlood flood-opacity="0" result="BackgroundImageFix"/>
<feColorMatrix in="SourceAlpha" type="matrix" values="0 0 0 0 0 0 0 0 0 0 0 0 0 0 0 0 0 0 127 0" result="hardAlpha"/>
<feOffset/>
<feGaussianBlur stdDeviation="61.2121"/>
<feComposite in2="hardAlpha" operator="out"/>
<feColorMatrix type="matrix" values="0 0 0 0 0.34902 0 0 0 0 0.780392 0 0 0 0 0.454902 0 0 0 0.4 0"/>
<feBlend mode="normal" in2="BackgroundImageFix" result="effect1_dropShadow_281_812"/>
<feBlend mode="normal" in="SourceGraphic" in2="effect1_dropShadow_281_812" result="shape"/>
</filter>
<linearGradient id="paint0_linear_281_812" x1="412" y1="0" x2="412" y2="1024" gradientUnits="userSpaceOnUse">
<stop stop-color="#175259"/>
<stop offset="0.317669" stop-color="#072225"/>
</linearGradient>
<linearGradient id="paint1_linear_281_812" x1="412" y1="409.98" x2="412" y2="614.02" gradientUnits="userSpaceOnUse">
<stop stop-color="#5FCFAA"/>
<stop offset="1" stop-color="#4BB793"/>
</linearGradient>
<linearGradient id="paint2_linear_281_812" x1="412" y1="409.98" x2="412" y2="614.02" gradientUnits="userSpaceOnUse">
<stop stop-color="#5FCFAA"/>
<stop offset="1" stop-color="#4BB793"/>
</linearGradient>
<linearGradient id="paint3_linear_281_812" x1="412" y1="409.98" x2="412" y2="614.02" gradientUnits="userSpaceOnUse">
<stop stop-color="#5FCFAA"/>
<stop offset="1" stop-color="#4BB793"/>
</linearGradient>
<clipPath id="clip0_281_812">
<rect width="824" height="1024" fill="white"/>
</clipPath>
</defs>
</svg>
